<svg width="24" height="24" viewBox="0 0 24 24" fill="none" xmlns="http://www.w3.org/2000/svg">
<path fill-rule="evenodd" clip-rule="evenodd" d="M20.5 12.5C20.5 13.8807 19.3807 15 18 15H6C4.61929 15 3.5 13.8807 3.5 12.5V10.5C3.5 9.11929 4.61929 8 6 8H18C19.3807 8 20.5 9.11929 20.5 10.5V12.5ZM22 12.5C22 14.9853 19.9853 17 17.5 17H6.5C4.01472 17 2 14.9853 2 12.5V10.5C2 8.01472 4.01472 6 6.5 6H17.5C19.9853 6 22 8.01472 22 10.5V12.5ZM7 18C7 18.5523 6.55228 19 6 19C5.44772 19 5 18.5523 5 18C5 17.4477 5.44772 17 6 17C6.55228 17 7 17.4477 7 18ZM19 18C19 18.5523 18.5523 19 18 19C17.4477 19 17 18.5523 17 18C17 17.4477 17.4477 17 18 17C18.5523 17 19 17.4477 19 18ZM8 20C8 20.5523 7.55228 21 7 21C6.44772 21 6 20.5523 6 20C6 19.4477 6.44772 19 7 19C7.55228 19 8 19.4477 8 20ZM18 20C18 20.5523 17.5523 21 17 21C16.4477 21 16 20.5523 16 20C16 19.4477 16.4477 19 17 19C17.5523 19 18 19.4477 18 20Z" fill="#0D1C0D"/>
</svg>

