<svg width="24" height="24" viewBox="0 0 24 24" fill="none" xmlns="http://www.w3.org/2000/svg">
<g clip-path="url(#clip0_3_866)">
<path fill-rule="evenodd" clip-rule="evenodd" d="M21 12C21 12.4142 20.6642 12.75 20.25 12.75H12C11.5858 12.75 11.25 12.4142 11.25 12C11.25 11.5858 11.5858 11.25 12 11.25H20.25C20.6642 11.25 21 11.5858 21 12ZM12 6.75H20.25C20.6642 6.75 21 6.41421 21 6C21 5.58579 20.6642 5.25 20.25 5.25H12C11.5858 5.25 11.25 5.58579 11.25 6C11.25 6.41421 11.5858 6.75 12 6.75ZM20.25 17.25H12C11.5858 17.25 11.25 17.5858 11.25 18C11.25 18.4142 11.5858 18.75 12 18.75H20.25C20.6642 18.75 21 18.4142 21 18C21 17.5858 20.6642 17.25 20.25 17.25ZM7.71938 3.96937L5.25 6.43969L4.28062 5.46938C3.98757 5.17632 3.51243 5.17632 3.21937 5.46938C2.92632 5.76243 2.92632 6.23757 3.21937 6.53062L4.71938 8.03063C4.86005 8.17146 5.05094 8.25059 5.25 8.25059C5.44906 8.25059 5.63995 8.17146 5.78062 8.03063L8.78063 5.03062C9.07368 4.73757 9.07368 4.26243 8.78063 3.96937C8.48757 3.67632 8.01243 3.67632 7.71938 3.96937ZM7.71938 9.96937L5.25 12.4397L4.28062 11.4694C4.09105 11.2798 3.81474 11.2058 3.55578 11.2752C3.29681 11.3445 3.09454 11.5468 3.02515 11.8058C2.95576 12.0647 3.0298 12.3411 3.21937 12.5306L4.71938 14.0306C4.86005 14.1715 5.05094 14.2506 5.25 14.2506C5.44906 14.2506 5.63995 14.1715 5.78062 14.0306L8.78063 11.0306C9.07368 10.7376 9.07368 10.2624 8.78063 9.96937C8.48757 9.67632 8.01243 9.67632 7.71938 9.96937ZM7.71938 15.9694L5.25 18.4397L4.28062 17.4694C4.09105 17.2798 3.81474 17.2058 3.55578 17.2752C3.29681 17.3445 3.09454 17.5468 3.02515 17.8058C2.95576 18.0647 3.0298 18.3411 3.21937 18.5306L4.71938 20.0306C4.86005 20.1715 5.05094 20.2506 5.25 20.2506C5.44906 20.2506 5.63995 20.1715 5.78062 20.0306L8.78063 17.0306C9.07368 16.7376 9.07368 16.2624 8.78063 15.9694C8.48757 15.6763 8.01243 15.6763 7.71938 15.9694Z" fill="#0D1C0D"/>
</g>
<defs>
<clipPath id="clip0_3_866">
<rect width="24" height="24" fill="white"/>
</clipPath>
</defs>
</svg>
