<svg width="24" height="24" viewBox="0 0 24 24" fill="none" xmlns="http://www.w3.org/2000/svg">
<path fill-rule="evenodd" clip-rule="evenodd" d="M12 12C14.7614 12 17 9.76142 17 7C17 4.23858 14.7614 2 12 2C9.23858 2 7 4.23858 7 7C7 9.76142 9.23858 12 12 12ZM12 14C16.4183 14 20 17.5817 20 22C20 22.5523 19.5523 23 19 23H5C4.44772 23 4 22.5523 4 22C4 17.5817 7.58172 14 12 14ZM12 10C13.6569 10 15 8.65685 15 7C15 5.34315 13.6569 4 12 4C10.3431 4 9 5.34315 9 7C9 8.65685 10.3431 10 12 10ZM12 16C15.3137 16 18 18.6863 18 22H6C6 18.6863 8.68629 16 12 16Z" fill="#0D1C0D"/>
</svg>

